# xmcd CD database file
#
# Track frame offsets:
#	150
#	26772
#	43297
#	71200
#	88465
#	101352
#	124775
#	136580
#
# Disc length: 2075 seconds
#
# Revision: 2
# Processed by: cddbd v1.5.2PL0 Copyright (c) Steve Scherf et al.
# Submitted via: CDex 1.70beta1
#
DISCID=71081908
DTITLE=Wynton Kelly - Autumn Leaves
DYEAR=1991
DGENRE=Jazz
TTITLE0=Come Rain Or Come Shine
TTITLE1=Make The Man Love Me
TTITLE2=Autumn Leaves
TTITLE3=Surry With The Fringe On Top
TTITLE4=Joe's Avenue
TTITLE5=Sassy
TTITLE6=Love I've Found You
TTITLE7=Gone With The Wind
EXTD=YEAR: 1991
EXTT0=
EXTT1=
EXTT2=
EXTT3=
EXTT4=
EXTT5=
EXTT6=
EXTT7=
PLAYORDER=
